# xmcd CD database file
#
# Track frame offsets:
#	150
#	22171
#	25190
#
# Disc length: 563 seconds
#
# Revision: 2
# Processed by: cddbd v1.5.2PL0 Copyright (c) Steve Scherf et al.
# Submitted via: CDex 1.70beta2
#
DISCID=1d023103
DTITLE=12012 - Shudder -完全盤- [Disc 1]
DYEAR=2005
DGENRE=Visual_Rock
TTITLE0=Shudder
TTITLE1=in favor of...?
TTITLE2=Venom
EXTD=YEAR: 2005
EXTT0=
EXTT1=
EXTT2=
PLAYORDER=
